<?xml version="1.0"?><svg width="317.683" height="390.479" xmlns="http://www.w3.org/2000/svg">
 <title>Dove</title>
 <switch>
  <g id="svg_1">
   <g id="Layer_1">
    <g id="svg_2">
     <path id="svg_3" stroke-width="0.036" stroke-miterlimit="10" stroke="#000000" fill-rule="evenodd" d="m128.509995,293.233002c-26.004997,-13.580994 -43.604004,-25.921997 -53.749008,-37.639999c-10.020996,-11.843002 -12.131996,-22.278 -6.334999,-32.257996c-13.954998,-7.45401 -23.686996,-16.522003 -29.813995,-27.372009c-6.004002,-11.013992 -8.240002,-23.229004 -6.377003,-37.598999c-10.51799,-10.807999 -17.349999,-20.373001 -20.496989,-28.862c-3.147,-8.612999 -2.774,-15.736 1.45,-21.987999c-8.573,-19.626999 -12.797,-33.375 -13.17,-42.028999c-0.456,-8.695999 1.946,-19.503002 11.222,-9.275002c9.316999,10.351997 25.466002,47.910004 44.473001,70.850998c18.924,22.94001 41.409,44.349007 68.408001,65.508003c-1.574005,-16.438995 -0.746002,-31.386993 2.938995,-45.466003c3.686005,-14.203995 9.60701,-26.75 18.550995,-38.592995c-0.868988,-17.102005 1.905014,-31.056999 8.323013,-42.527c6.418991,-11.429001 16.190994,-20 29.813995,-25.880001c0.414001,-6.500999 2.360001,-11.512001 5.839005,-15.652c3.477997,-4.059 8.19899,-7.040001 14.658997,-8.779c6.914993,-10.973 12.298004,-15.984 16.149002,-15.653c3.850998,0.373 7.453003,4.969 6.832001,18.096c-0.87001,13.250999 -9.52301,40.208002 -11.264008,60.083998c-1.738998,19.668999 4.928009,37.931 0.994003,57.185997c-4.182007,19.21402 -23.727997,38.220016 -24.927994,57.185013c-1.201004,18.925003 9.937988,43.977005 18.094986,55.197998c8.158005,10.933014 20.125,10.68399 30.312012,10.27002c10.227997,-0.497009 20.746002,-12.878021 29.77301,-13.209015c8.777985,-0.455002 14.409973,7.080994 22.483978,10.766998c7.908997,3.644012 16.108002,7.079987 24.928009,10.765991c-15.278015,3.313019 -27.32901,8.902008 -36.645996,17.10202c-9.358002,8.199005 -5.384003,21.449982 -19.049011,31.760986c-13.912994,10.145996 -40.373001,25.881012 -63.065002,28.820007c-22.774994,2.733002 -46.501999,-1.283997 -72.299995,-12.216003c-18.799995,21.657013 -34.825005,36.979004 -48.862,46.915985c-14.119999,9.649017 -30.103996,12.58902 -34.700996,11.720001c-4.514,-0.91098 -1.905003,-6.294983 7.826,-16.60498c-25.052002,6.128998 -39.338012,7.701996 -43.976011,4.885986c-4.431,-2.938995 1.118,-10.104004 17.101999,-21.988007c-14.162,2.899017 -19.751999,2.237 -17.101999,-1.985992c2.733,-4.348999 12.795,-13.169006 33.210001,-23.437988c20.500008,-10.439026 49.444008,-22.820007 88.452003,-38.101013z" clip-rule="evenodd"/>
     <path id="svg_4" stroke-width="0.036" stroke-miterlimit="10" stroke="#000000" fill-rule="evenodd" fill="#FFFFFF" d="m137.330002,272.695007c-4.264999,-5.921997 -8.281006,-12.546997 -12.215004,-20.539001c-4.016998,-8.033997 -11.925995,-20.869995 -11.264,-26.875c0.787003,-5.919998 5.797005,-8.903 15.653,-8.778l6.833008,20.539001c-3.354004,-14.740997 -5.632004,-26.210999 -6.833008,-35.197998c-1.201004,-8.985001 -0.994003,-9.276001 -0.496994,-18.096008c0.289993,-8.986008 -0.497009,-23.106003 2.442993,-34.701004c2.81601,-11.593994 7.701996,-22.773994 14.658997,-34.203987c-0.785995,16.273994 -0.785995,29.648994 0,41.077995c0.74501,11.263 2.153,20.000992 4.389999,26.376999c-0.703995,-29.026993 -0.703995,-51.470993 0,-68.903992c0.496002,-17.268005 1.283005,-24.887001 3.934006,-34.204002c2.733002,-9.483002 7.328995,-16.812 12.214996,-21.987999c4.680008,-5.299999 10.104004,-8.241001 16.108002,-9.275002l-4.886993,36.149002c3.975998,-13.748001 7.248001,-25.218002 10.270996,-35.198013c2.774002,-10.063 4.845001,-19.212997 7.330002,-23.934998c2.524002,-4.679001 5.134003,-5.921001 7.824997,-3.892l-7.824997,32.713011c4.222992,-9.896 7.494003,-18.468002 10.268997,-25.880001c2.649002,-7.66 3.313004,-15.197001 5.839005,-18.593c2.401001,-3.395 7.578003,-6.169 8.819992,-0.952c1.034012,5.341 -0.373001,20.621 -1.987991,32.256998c-1.738998,11.470001 -6.998001,23.313004 -7.783997,36.148994c-0.746002,12.794998 3.477997,28.986 3.395996,40.084c-0.042007,10.807999 -0.539001,15.279991 -4.389999,25.383995c-4.223999,10.27002 -16.06601,23.270996 -20.042007,35.197006c-4.05899,11.595001 -5.713989,22.360992 -3.395996,34.700989c2.358994,12.340012 10.559006,29.938004 17.557007,38.593002c6.791992,8.322006 15.196991,10.684006 23.478989,12.216019c8.197998,1.48999 17.848007,-0.869019 25.425003,-2.940002c7.371002,-2.235016 12.919006,-9.64801 19.048004,-9.77301c6.04599,0.041992 11.264008,6.544006 17.102997,9.276001c5.755005,2.567993 11.304993,4.471985 17.10199,5.881012c-13.332977,3.063995 -23.063995,7.245972 -29.813995,13.166992c-6.75,5.838989 -6.128998,15.031982 -10.268982,21.53299c-4.266022,6.252014 -4.680023,10.187012 -15.157013,16.604004c-10.723999,6.419006 -33.498993,18.428009 -48.365005,21.988007c-14.947998,3.354004 -28.778,0.207001 -40.538986,-1.449005c-11.843002,-1.697998 -21.574005,-4.554993 -29.814011,-8.571014l31.761002,-29.813995c-5.382996,2.318024 -12.380997,7.040009 -21.490997,14.161011c-9.193008,7.205994 -20.539001,17.516998 -32.753998,28.36499c-12.340004,10.684021 -30.767006,29.276031 -40.084,35.653015c-9.358006,6.212006 -17.391003,5.962006 -15.155003,1.987c2.402,-4.183014 11.759998,-12.835999 28.861996,-26.419006c-18.633995,9.937988 -33.416996,16.563995 -44.969997,20.041992c-11.677,3.354004 -22.32,2.609009 -23.934999,0.497009c-1.49,-2.319 5.839001,-7.576996 14.659,-13.209991c8.696001,-5.589996 20.870001,-12.216003 37.143999,-20.041016c-20.498001,7.536011 -34.618,11.843018 -43.024,13.705994c-8.447,1.574005 -11.676999,0.165009 -6.833,-3.437988c4.928001,-3.686005 15.487001,-8.529999 36.15,-18.053009c20.621002,-9.690979 49.028,-22.402985 86.503006,-39.091003c-17.102005,-8.985992 -30.684006,-16.977997 -41.534004,-24.431976c-10.931999,-7.493988 -18.965004,-12.837006 -22.981003,-20.042007c-4.057999,-7.203995 -4.264999,-14.86499 -0.951996,-22.981995l31.759995,15.156998c-13.747993,-7.868011 -25.424995,-14.990005 -35.197998,-21.989014c-10.021,-6.957001 -18.053997,-12.50499 -23.436996,-19.544998c-5.342003,-7.330002 -6.833,-16.645996 -8.323002,-22.981995c-1.615002,-6.294006 -1.945999,-10.848999 -0.993999,-14.162003l19.09,17.599014c-10.274002,-11.713013 -18.431,-21.817017 -24.932001,-30.803009c-6.625,-9.027008 -11.345999,-17.102005 -13.705999,-22.940002c-2.319,-5.879997 -2.319,-9.896004 0,-12.216003l17.598999,27.62001c-8.446999,-13.872009 -15.073,-26.916008 -20.041999,-40.083008c-5.094001,-13.293999 -10.436,-34.040001 -9.773,-38.139c0.621,-3.933998 6.833,4.098999 13.706999,14.203003c6.75,10.020996 16.397001,31.014999 26.874002,45.425995c10.434998,14.409996 23.644997,28.198997 35.155998,40.083c11.347,11.719009 24.763,23.686005 32.258003,29.813995c7.204994,5.880005 11.014,7.827011 11.262993,5.840012l0,11.263c-6.667,0.371994 -11.014999,2.483002 -13.209999,6.832001c-2.194,4.223999 -4.431,9.067993 0,18.550995c4.348,9.399994 12.837006,21.781998 25.922005,37.641006z" clip-rule="evenodd"/>
    </g>
   </g>
  </g>
 </switch>
 <g>
  <title>Layer 1</title>
 </g>
</svg>