<?xml version="1.0" encoding="UTF-8" standalone="no"?>
<svg
   xmlns:dc="http://purl.org/dc/elements/1.1/"
   xmlns:cc="http://creativecommons.org/ns#"
   xmlns:rdf="http://www.w3.org/1999/02/22-rdf-syntax-ns#"
   xmlns:svg="http://www.w3.org/2000/svg"
   xmlns="http://www.w3.org/2000/svg"
   xmlns:sodipodi="http://sodipodi.sourceforge.net/DTD/sodipodi-0.dtd"
   xmlns:inkscape="http://www.inkscape.org/namespaces/inkscape"
   inkscape:version="1.0 (1.0+r73+1)"
   sodipodi:docname="triquetra.svg"
   id="svg883"
   preserveAspectRatio="xMidYMid meet"
   viewBox="0 0 2000.000000 2000.000000"
   height="2000.000000pt"
   width="2000.000000pt"
   version="1.0">
  <defs
     id="defs887" />
  <sodipodi:namedview
     inkscape:current-layer="svg883"
     inkscape:window-maximized="1"
     inkscape:window-y="27"
     inkscape:window-x="67"
     inkscape:cy="1333.3333"
     inkscape:cx="1333.3333"
     inkscape:zoom="0.31875"
     showgrid="false"
     id="namedview885"
     inkscape:window-height="1025"
     inkscape:window-width="1853"
     inkscape:pageshadow="2"
     inkscape:pageopacity="0"
     guidetolerance="10"
     gridtolerance="10"
     objecttolerance="10"
     borderopacity="1"
     bordercolor="#666666"
     pagecolor="#ffffff" />
  <metadata
     id="metadata877">
Created by potrace 1.16, written by Peter Selinger 2001-2019
<rdf:RDF>
  <cc:Work
     rdf:about="">
    <dc:format>image/svg+xml</dc:format>
    <dc:type
       rdf:resource="http://purl.org/dc/dcmitype/StillImage" />
  </cc:Work>
</rdf:RDF>
</metadata>
  <g
     id="g881"
     stroke="none"
     fill="#ffea62"
     transform="matrix(0.1,0,0,-0.1,-259.23968,1680)">
    <path
       id="path879"
       d="m 9724,16557 c -131,-133 -297,-308 -368,-387 -694,-778 -1206,-1659 -1531,-2635 -69,-205 -145,-469 -161,-551 -6,-32 -13,-38 -95,-79 -321,-162 -687,-406 -999,-665 -160,-134 -486,-459 -622,-620 -586,-697 -971,-1493 -1148,-2370 -74,-367 -103,-662 -104,-1076 l -1,-301 -156,-161 C 3790,6940 3185,5940 2840,4900 c -89,-267 -259,-884 -247,-896 8,-9 580,-157 767,-199 738,-166 1575,-215 2370,-140 351,34 853,123 1160,206 l 46,12 119,-80 c 735,-492 1598,-790 2505,-864 185,-15 643,-15 825,0 910,74 1727,354 2500,859 l 130,85 70,-18 c 1074,-263 2084,-303 3150,-124 261,43 437,83 835,189 107,29 213,57 235,63 22,5 43,13 47,16 13,11 -156,626 -241,881 -362,1084 -950,2051 -1738,2860 l -122,125 -4,370 c -3,253 -10,414 -21,510 -77,652 -241,1218 -511,1770 -497,1013 -1288,1826 -2296,2358 l -125,67 -54,192 c -311,1122 -852,2117 -1634,3008 -106,120 -624,650 -636,650 -3,0 -114,-109 -246,-243 z m 337,-1224 c 379,-456 749,-1063 977,-1605 81,-194 151,-376 145,-382 -3,-2 -17,0 -31,4 -78,26 -474,90 -697,112 -203,20 -809,17 -1015,-5 -172,-19 -455,-64 -597,-96 -46,-10 -83,-15 -83,-11 0,4 18,54 39,111 257,679 623,1313 1078,1866 47,57 89,103 94,103 5,0 45,-44 90,-97 z m 359,-2818 c 206,-22 410,-58 595,-104 181,-45 441,-127 450,-141 9,-15 51,-319 71,-505 10,-102 18,-292 21,-525 7,-471 -11,-716 -83,-1172 -31,-193 -18,-179 -144,-153 -107,23 -397,63 -614,85 -649,67 -1342,42 -2019,-71 -103,-18 -190,-30 -192,-27 -17,17 -79,451 -100,698 -40,490 -25,1017 46,1505 11,77 22,147 24,155 3,10 59,33 147,62 325,107 695,180 1063,208 156,12 564,4 735,-15 z m -2970,-941 c -21,-323 -10,-807 26,-1174 23,-242 89,-680 110,-734 3,-9 -24,-23 -88,-46 -607,-214 -1166,-492 -1683,-837 -135,-90 -140,-92 -143,-68 -2,14 11,109 28,212 182,1086 782,2072 1664,2736 49,37 90,66 92,64 2,-2 -1,-71 -6,-153 z m 5285,-30 c 785,-652 1304,-1532 1499,-2539 28,-144 50,-304 44,-310 -2,-3 -69,39 -149,91 -493,328 -1038,602 -1601,806 -154,56 -169,63 -164,82 3,12 18,102 35,201 100,598 129,1142 94,1744 l -6,115 62,-44 c 35,-25 119,-90 186,-146 z M 10455,9075 c 369,-28 735,-82 735,-109 0,-19 -119,-323 -185,-471 -186,-421 -452,-879 -723,-1245 -103,-140 -262,-338 -292,-365 -21,-19 -22,-19 -38,1 -147,180 -265,333 -338,434 -339,469 -628,1012 -825,1550 -21,57 -37,106 -35,108 2,2 82,16 178,32 187,31 412,56 603,69 212,14 707,12 920,-4 z M 7864,8648 c 140,-400 371,-898 592,-1278 227,-389 546,-834 833,-1164 19,-21 27,-13 -195,-191 C 8552,5579 7940,5232 7282,4985 l -154,-58 -51,49 c -220,207 -366,364 -508,544 -423,536 -717,1174 -849,1839 -31,161 -40,142 118,268 569,456 1144,788 1802,1039 91,35 172,63 180,64 10,0 25,-27 44,-82 z m 4352,53 c 614,-224 1183,-533 1704,-924 234,-177 330,-259 330,-285 0,-31 -54,-285 -90,-417 -210,-786 -674,-1546 -1268,-2077 l -74,-67 -87,31 c -465,163 -977,422 -1424,720 -232,155 -657,483 -657,507 0,4 52,70 116,147 542,651 986,1416 1268,2184 26,69 53,144 62,168 9,23 21,42 28,42 7,0 48,-13 92,-29 z M 4969,6518 c 215,-636 551,-1229 982,-1736 68,-79 95,-118 87,-123 -17,-9 -393,-55 -573,-71 -185,-16 -761,-16 -950,0 -338,28 -745,87 -745,107 0,18 72,208 147,385 182,433 428,870 717,1275 80,113 260,344 267,344 4,1 35,-81 68,-181 z m 10169,70 c 408,-513 763,-1142 998,-1769 25,-67 43,-124 40,-127 -14,-14 -409,-70 -641,-92 -473,-43 -1004,-29 -1493,39 -73,11 -136,22 -139,25 -3,3 21,36 54,73 156,176 366,460 504,683 216,347 414,774 531,1142 23,76 46,138 50,138 3,0 47,-51 96,-112 z M 10074,5432 c 481,-413 1036,-775 1610,-1053 l 170,-82 -39,-19 c -160,-83 -518,-212 -750,-271 -414,-106 -746,-143 -1189,-134 -439,10 -799,67 -1206,194 -174,54 -570,213 -570,229 0,2 73,39 163,82 572,276 1172,670 1636,1076 36,31 69,56 74,56 5,0 50,-35 101,-78 z" />
  </g>
</svg>
