<?xml version="1.0" encoding="utf-8"?>
<!-- Generator: Adobe Illustrator 18.0.0, SVG Export Plug-In . SVG Version: 6.00 Build 0)  -->
<!DOCTYPE svg PUBLIC "-//W3C//DTD SVG 1.1//EN" "http://www.w3.org/Graphics/SVG/1.1/DTD/svg11.dtd">
<svg xmlns="http://www.w3.org/2000/svg" xmlns:xlink="http://www.w3.org/1999/xlink" version="1.1" id="Слой_1" x="0px" y="0px" viewBox="0 0 768 1024" enable-background="new 0 0 768 1024" xml:space="preserve">
<path fill="#000000" stroke="" stroke-width="2" stroke-linecap="round" stroke-linejoin="round" stroke-miterlimit="10" d="  M709,586.3c3.5-6.9,6.6-16.7,6.4-30.1c0,0,16.3-70.8,7-93.9c0,0,1-31-14.3-49c0,0-5.1-37-11.5-49.5c0,0-2.3-32.8-36.1-80.5  l-17.1-37.9c0,0-14.8-47.2-50.9-76.8c0,0-37.9-37.9-46.3-43.9c0,0-15.7-23.6-46.3-36.1c0,0-42.1-51.8-93-25c0,0-27.2-1.4-53.6,7.4  c0,0-40.8-4.6-56-11.1c0,0-11.1-7.4-29.1-10.6c0,0-25.4-9.7-41.6-25.9c0,0-31-33.3-84.7-10.2c0,0-37.9,7.9-55.5,59.2  c0,0-25,62.4,5.1,66.6l8.3,1.4c0,0,5.1,26.4,19.4,22.7c0,0,4.6,1.9,6,8.3c0,0,7.9,31.9,23.1,33.3c0,0,3.7-1.9,5.6,3.7  c0,0,1.4,5.1,5.1,5.1l2.8,3.2c0,0-10.2-0.5-18.5,17.1c0,0-39.3,54.1-10.2,82.3c0,0,24.1,28.2,30.5,43.9c0,0,24.1,60.6,44.4,72.6  c0,0-48.6,24.1-57.4,31.9c0,0-13.4,7.4-26.4,26.8c0,0-15.3,21.3-19,41.2c0,0-13,28.2-7.9,41.6c0,0,6.5,29.6,11.1,29.6  c0,0,4.2,16.7,15.3,16.7l21.7,8.8c0,0,15.3,2.8,19.4,1.9c0.6-0.1,1.1-0.2,1.4-0.3c0.1,0.1,0.1,0.3,0.2,0.4c-0.1,0-0.2,0.1-0.2,0.1  l0.2,0c9.4,22.2,24.9,52.3,41.4,58.6c0,0,12,5.6,25.9,27.8c0,0,31.9,40.7,91.6,76.3c0,0,55,43,65.7,77.3c0,0,7.9,21.3,6,31.5  l-7.9,17.6c0,0-9.7-4.6-13,14.3c0,0-6.5,0.9-10.6,0c0,0-19,3.2,3.7,28.7c0,0-21.7,15.5-7.9,28.5c0,0-7.2,21.9,14.7,32.2H769V588.2  C769,588.2,733.6,584.3,709,586.3z M156.2,598.2l-5.8-0.3c0,0-3.2-8.3-5.1-10.6c0,0,6.9-8.8,9.3-13.4c0,0,13.9-14.3,15.3-23.1  c0,0,2.3,13.9,6,21.3C175.8,572,157.5,583.3,156.2,598.2z M251.2,354.1c-6.5-1.9-55.5-52.3-55.5-52.3c0-1.9-5.6-7.4-5.6-7.4  c2.3,0,11.1-16.2,11.1-16.2c21.7-1.9,28.2-9.3,28.2-9.3l8.8,4.6c-0.9,16.7,13,46.3,13,46.3C248.4,331,251.2,354.1,251.2,354.1z   M262.3,215.6c-1.4,1.2-14.8,19.7-14.8,19.7s1.9,4.2-1.9,0c-3.7-4.2-17.6-9.3-17.6-9.3l4.6-10.2C235.4,205.6,253,194,253,194  c4.2,4.2,22.7,4.2,22.7,4.2C269.2,200.5,262.3,215.6,262.3,215.6z M373.7,436.9c5.5-2.3,5.2-13.4,5.2-13.4  c3.7-4.6,5.1-22.7,5.1-22.7c1.8-2.8,9.3-25.4,9.3-25.4l7.9,14.3c15.8,25.4,76.3,54.1,76.3,54.1C443.6,436.4,373.7,436.9,373.7,436.9  z M383,594.6c0,0,9.6,9.3,51.4,13.2c-6.2,4.3-9.8,9.6-9.8,16c0,0,4.4,22.4,3,35.1l-6.7-13.5C420.9,645.5,394.6,605.7,383,594.6z"/>
</svg>
